<svg   viewBox="0 0 128 128" fill="none" xmlns="http://www.w3.org/2000/svg">
<path d="M64.5107 52.084L83.1973 33.3975L94.5107 44.7109L75.8242 63.3975L95.0078 82.5811L83.6943 93.8955L64.5107 74.7119L44.3057 94.916L32.9922 83.6025L53.1963 63.3975L34.1963 44.3975L45.5107 33.084L64.5107 52.084Z" fill="currentColor"/>
<path fill-rule="evenodd" clip-rule="evenodd" d="M64 0C99.3462 0 128 28.6538 128 64C128 99.3462 99.3462 128 64 128C28.6538 128 0 99.3462 0 64C0 28.6538 28.6538 0 64 0ZM64 11C34.7289 11 11 34.7289 11 64C11 93.2711 34.7289 117 64 117C93.2711 117 117 93.2711 117 64C117 34.7289 93.2711 11 64 11Z" fill="currentColor"/>
</svg>
