<svg   viewBox="0 0 128 128" fill="none" xmlns="http://www.w3.org/2000/svg">
<g clip-path="url(#clip0_176_19)">
<path fill-rule="evenodd" clip-rule="evenodd" d="M64 0C99.3408 0 128 28.6592 128 64C128 99.3408 99.3408 128 64 128C28.6592 128 0 99.3408 0 64C0 28.6592 28.6592 0 64 0ZM64 12.8C35.7696 12.8 12.8 35.7696 12.8 64C12.8 92.2304 35.7696 115.2 64 115.2C92.2304 115.2 115.2 92.2304 115.2 64C115.2 35.7696 92.2304 12.8 64 12.8ZM78.6752 40.2752L87.7248 49.3248L73.0496 64L87.7248 78.6752L78.6752 87.7248L64 73.0496L49.3248 87.7248L40.2752 78.6752L54.9504 64L40.2752 49.3248L49.3248 40.2752L64 54.9504L78.6752 40.2752Z" fill="currentColor"/>
</g>
<defs>
<clipPath id="clip0_176_19">
<rect width="128" height="128" fill="currentColor"/>
</clipPath>
</defs>
</svg>
