<svg   viewBox="0 0 128 128" fill="none" xmlns="http://www.w3.org/2000/svg">
<path d="M75.1562 33.0391V58.4648H94.9717L63.9775 94.9609L33.0283 58.4648H52.7988V33.0391H75.1562Z" fill="currentColor"/>
<path fill-rule="evenodd" clip-rule="evenodd" d="M64 0C99.3462 0 128 28.6538 128 64C128 99.3462 99.3462 128 64 128C28.6538 128 0 99.3462 0 64C0 28.6538 28.6538 0 64 0ZM64 11C34.7289 11 11 34.7289 11 64C11 93.2711 34.7289 117 64 117C93.2711 117 117 93.2711 117 64C117 34.7289 93.2711 11 64 11Z" fill="currentColor"/>
</svg>
