<svg   viewBox="0 0 128 128" fill="none" xmlns="http://www.w3.org/2000/svg">
<path d="M45 24C46.968 24 49.815 24.5524 52.3062 26.3428C55.0419 28.3109 56.9999 31.5555 57 36C57 40.4446 55.042 43.6846 52.3062 45.6526C50.1673 47.1617 47.6176 47.9809 45 48C43.032 48 40.1858 47.4478 37.6947 45.6526C34.9587 43.6846 33 40.4496 33 36C33.0001 31.5553 34.9588 28.3156 37.6947 26.3428C39.8341 24.8355 42.383 24.0178 45 24Z" fill="currentColor"/>
<path d="M28.5694 80.3297C34.8871 80.1963 41.1945 81.0233 47.3546 82.7938C51.7277 84.0707 58.034 86.9947 64.2334 91.6811C68.6521 95.0204 72.8596 99.1364 76.2647 104H24V80.5648C25.4185 80.4412 26.9063 80.3562 28.4569 80.3225V80.3297H28.5694Z" fill="currentColor"/>
<path d="M104 104H88.7971C88.743 103.869 88.6868 103.74 88.6256 103.614C83.7705 93.6347 76.5556 86.1005 69.4583 80.7374C64.8621 77.2516 60.1749 74.5889 55.9846 72.7182C66.9448 63.55 82.504 56.981 104 56V104Z" fill="currentColor"/>
<path fill-rule="evenodd" clip-rule="evenodd" d="M116 116H12V12H116V116ZM20 20V108H108V20H20Z" fill="currentColor"/>
</svg>
