<svg   viewBox="0 0 128 128" fill="none" xmlns="http://www.w3.org/2000/svg">
<g clip-path="url(#clip0_176_46)">
<path fill-rule="evenodd" clip-rule="evenodd" d="M64 0C99.3408 0 128 28.6592 128 64C128 99.3408 99.3408 128 64 128C28.6592 128 0 99.3408 0 64C0 28.6592 28.6592 0 64 0ZM64 12.8C35.7696 12.8 12.8 35.7696 12.8 64C12.8 92.2304 35.7696 115.2 64 115.2C92.2304 115.2 115.2 92.2304 115.2 64C115.2 35.7696 92.2304 12.8 64 12.8Z" fill="currentColor"/>
<path d="M72.7843 54.7089C72.8603 54.7064 72.9345 54.7357 72.99 54.7893C73.0453 54.8428 73.0777 54.9169 73.0804 54.9952L73.0679 55.0899L65.215 81.8603L65.2081 81.8861C64.975 82.7468 64.532 84.3843 65.9002 84.3843C66.1999 84.3842 66.5819 84.2121 67.0365 83.8706C67.5294 83.5036 68.0946 82.9458 68.7279 82.2075C69.3715 81.4549 70.042 80.5654 70.7377 79.5407C71.4313 78.5183 72.1605 77.346 72.9191 76.0396C72.9384 76.0061 72.964 75.9768 72.9942 75.9535C73.0244 75.9301 73.0591 75.9128 73.0957 75.9032C73.1321 75.8937 73.1703 75.8919 73.2075 75.8975C73.2448 75.9031 73.2808 75.9163 73.3132 75.9362L75.8845 77.9057C76.0069 77.9982 76.0349 78.1747 75.9547 78.306C74.7724 80.428 73.577 82.2811 72.3688 83.862C71.1505 85.4538 69.9156 86.7747 68.6647 87.818L68.6446 87.8331C67.3936 88.8795 66.1105 89.6672 64.796 90.1949C61.1376 91.6576 55.3609 91.4191 53.7068 87.0116C52.6614 84.2282 53.5216 81.0659 54.344 78.344L58.4935 65.3681C58.7591 64.3838 59.0945 63.3037 59.217 62.2895C59.4181 60.602 58.6968 59.511 56.9153 59.5108H53.2877C53.2113 59.5104 53.138 59.4791 53.0841 59.4233C53.0301 59.3674 53.0002 59.2913 53 59.2124L53.0153 59.1091L53.9694 55.5268C53.9863 55.4639 54.0225 55.4083 54.073 55.369C54.1237 55.3296 54.1861 55.3087 54.2495 55.3094L72.7843 54.7089Z" fill="currentColor"/>
<path d="M68.7446 37C72.218 37 75.0339 39.9632 75.0339 43.6185C75.0337 47.2737 72.2179 50.237 68.7446 50.237C65.2714 50.237 62.4555 47.2737 62.4554 43.6185C62.4554 39.9633 65.2713 37.0001 68.7446 37Z" fill="currentColor"/>
</g>
<defs>
<clipPath id="clip0_176_46">
<rect width="128" height="128" fill="currentColor"/>
</clipPath>
</defs>
</svg>
