<svg   viewBox="0 0 128 128" fill="none" xmlns="http://www.w3.org/2000/svg">
<path d="M75.6416 51.3535C75.7483 51.3501 75.8526 51.39 75.9307 51.4629C76.0084 51.5358 76.0538 51.6367 76.0576 51.7432L76.04 51.8721L65.0049 88.3105L64.9951 88.3457C64.6676 89.5172 64.0451 91.7461 65.9678 91.7461C66.3889 91.7461 66.9257 91.5118 67.5645 91.0469C68.2572 90.5474 69.0514 89.7881 69.9414 88.7832C70.8457 87.7588 71.7879 86.548 72.7656 85.1533C73.7402 83.7617 74.765 82.1659 75.8311 80.3877C75.8581 80.3421 75.894 80.3023 75.9365 80.2705C75.979 80.2388 76.0277 80.2152 76.0791 80.2021C76.1303 80.1892 76.184 80.1867 76.2363 80.1943C76.2887 80.202 76.3393 80.22 76.3848 80.2471L79.998 82.9277C80.1701 83.0537 80.2094 83.2939 80.0967 83.4727C78.4354 86.3611 76.7555 88.8834 75.0576 91.0352C73.3456 93.2019 71.6104 94.9998 69.8525 96.4199L69.8242 96.4404C68.0663 97.8648 66.2633 98.937 64.416 99.6553C59.2751 101.646 51.1575 101.322 48.833 95.3223C47.3641 91.5337 48.5729 87.2294 49.7285 83.5244L55.5596 65.8623C55.9328 64.5224 56.4041 63.0523 56.5762 61.6719C56.8588 59.3749 55.8452 57.8898 53.3418 57.8896H48.2441C48.1368 57.8891 48.0338 57.8465 47.958 57.7705C47.8822 57.6944 47.8401 57.5908 47.8398 57.4834L47.8613 57.3428L49.2021 52.4668C49.2259 52.3812 49.2767 52.3054 49.3477 52.252C49.4188 52.1984 49.5066 52.1699 49.5957 52.1709L75.6416 51.3535Z" fill="currentColor"/>
<path d="M69.9648 27.249C74.8457 27.249 78.8027 31.2824 78.8027 36.2578C78.8026 41.2331 74.8456 45.2666 69.9648 45.2666C65.0841 45.2665 61.1271 41.233 61.127 36.2578C61.127 31.2825 65.084 27.2491 69.9648 27.249Z" fill="currentColor"/>
<path fill-rule="evenodd" clip-rule="evenodd" d="M64 0C99.3462 0 128 28.6538 128 64C128 99.3462 99.3462 128 64 128C28.6538 128 0 99.3462 0 64C0 28.6538 28.6538 0 64 0ZM64 11C34.7289 11 11 34.7289 11 64C11 93.2711 34.7289 117 64 117C93.2711 117 117 93.2711 117 64C117 34.7289 93.2711 11 64 11Z" fill="currentColor"/>
</svg>
