<svg   viewBox="0 0 128 128" fill="none" xmlns="http://www.w3.org/2000/svg">
<path d="M84.3103 41.9767C84.492 41.9707 84.6695 42.0402 84.8022 42.1672C84.9345 42.2941 85.0119 42.4698 85.0183 42.6553L84.9884 42.8797L66.2098 106.335L66.1932 106.397C65.6359 108.437 64.5765 112.318 67.8484 112.318C68.565 112.318 69.4785 111.91 70.5654 111.101C71.7442 110.231 73.0958 108.909 74.6103 107.159C76.1491 105.375 77.7525 103.266 79.4163 100.837C81.0748 98.4138 82.8187 95.6349 84.6327 92.5382C84.6788 92.4588 84.7399 92.3894 84.8122 92.3341C84.8845 92.2789 84.9674 92.2378 85.0548 92.2151C85.142 92.1926 85.2334 92.1882 85.3224 92.2015C85.4115 92.2148 85.4976 92.2461 85.575 92.2933L91.7237 96.9615C92.0165 97.1808 92.0834 97.5992 91.8916 97.9105C89.0645 102.94 86.2058 107.333 83.3166 111.08C80.4033 114.853 77.4504 117.984 74.4591 120.457L74.4109 120.493C71.4195 122.974 68.3512 124.841 65.2077 126.092C56.4594 129.559 42.6456 128.993 38.6901 118.546C36.1904 111.948 38.2474 104.453 40.214 98.0006L50.1367 67.243C50.7718 64.9097 51.5738 62.3496 51.8666 59.9456C52.3475 55.9455 50.6228 53.3594 46.3627 53.359H37.688C37.5053 53.3581 37.3301 53.2839 37.2011 53.1516C37.072 53.0191 37.0004 52.8386 37 52.6516L37.0366 52.4067L39.3182 43.9154C39.3586 43.7663 39.4451 43.6344 39.5658 43.5413C39.687 43.448 39.8364 43.3983 39.988 43.4001L84.3103 41.9767Z" fill="currentColor"/>
<path d="M74.6502 0C82.956 0 89.6897 7.02395 89.6897 15.6883C89.6894 24.3525 82.9559 31.3767 74.6502 31.3767C66.3447 31.3765 59.611 24.3524 59.6107 15.6883C59.6107 7.02405 66.3445 0.000170183 74.6502 0Z" fill="currentColor"/>
</svg>
