<svg   viewBox="0 0 128 128" fill="none" xmlns="http://www.w3.org/2000/svg">
<path d="M64.2246 127.851C66.9195 127.845 69.561 127.664 72.1544 127.317L71.8496 127.349C78.1058 126.523 83.7844 124.906 89.0781 122.586L88.6717 122.746C96.532 119.333 103.253 114.767 108.964 109.172L108.953 109.182C114.226 104.025 118.594 97.9815 121.835 91.2876L122.001 90.9036C124.605 85.5165 126.519 79.2653 127.417 72.6887L127.455 72.3634C127.802 69.8138 128 66.8696 128 63.8773C128 60.2824 127.717 56.7567 127.166 53.3164L127.214 53.6951C126.321 48.116 124.845 43.1183 122.813 38.4085L122.974 38.8246C121.53 35.4803 120.001 32.6481 118.263 29.9652L118.407 30.1998C111.996 20.423 103.302 12.6251 93.0618 7.43529L92.6874 7.2646C89.415 5.55246 85.565 3.979 81.56 2.75756L81.0734 2.62955H81.0467C81.683 2.96558 82.33 3.33361 82.8915 3.69631C83.4529 4.059 84.1694 4.47504 84.7683 4.89641C87.9071 7.01392 90.6395 9.35011 93.0778 11.9637L93.1045 11.9903C98.5319 17.9215 102.633 25.1594 104.874 33.1761L104.965 33.5441C106.36 38.2805 107.317 43.7796 107.627 49.4441L107.638 49.6361C107.74 51.0016 107.798 52.5964 107.798 54.2018C107.798 56.7834 107.649 59.3276 107.36 61.8291L107.387 61.5251C106.574 68.7151 104.237 75.2276 100.703 80.9241L100.82 80.7214C98.1041 85.1004 94.7194 88.7914 90.7625 91.7623L90.6609 91.837C85.688 95.848 79.2875 98.2749 72.3202 98.2749C70.4166 98.2749 68.5611 98.0935 66.7591 97.7468L66.9409 97.7735C65.4117 97.4108 64.0802 96.9361 62.8129 96.344L62.9413 96.3974C61.3478 95.6666 59.9789 94.8666 58.701 93.9492L58.7758 94.0025C56.2413 92.301 54.0543 90.3489 52.1614 88.146L52.124 88.1033C49.8675 85.4365 47.9799 82.3589 46.6004 79.0146L46.5148 78.7852C44.916 74.7742 43.9535 70.1285 43.8733 65.2694V65.2374C43.852 64.7947 43.8413 64.272 43.8413 63.744C43.8413 57.1194 45.5416 50.8896 48.5361 45.4651L48.4345 45.6625C50.7444 41.6141 53.7014 38.2112 57.2091 35.475L57.284 35.4163C58.3695 34.5682 59.5886 33.7255 60.8612 32.9521L61.027 32.8614L61.1125 32.8241C59.2785 32.3867 57.1717 32.136 55.0114 32.136C54.45 32.136 53.8885 32.152 53.3324 32.184L53.4073 32.1787C51.0171 32.344 48.7981 32.7974 46.6913 33.5068L46.8784 33.4534C44.777 34.1522 42.9804 34.9629 41.28 35.9337L41.4297 35.8536C39.9325 36.7177 38.6545 37.5925 37.4407 38.5472L37.5102 38.4939C36.382 39.454 35.2644 40.4087 34.2217 41.4541C28.5645 47.5186 24.6824 55.3006 23.4365 63.9307L23.4098 64.1547C22.966 67.2003 22.7093 70.7206 22.7093 74.2995C22.7093 76.2677 22.7842 78.2198 22.9393 80.1507L22.9232 79.8947C23.4312 87.8206 25.2385 95.1973 28.142 101.993L27.9763 101.555C29.9012 105.993 32.3128 109.817 35.2217 113.209L35.1682 113.145C39.6544 118.293 45.2636 122.346 51.6267 124.938L51.9154 125.045C55.2093 126.432 59.0272 127.445 63.0161 127.904L63.214 127.92C63.5027 127.973 63.8342 128 64.1711 128H64.3369H64.3262L64.2139 127.829L64.2246 127.851ZM48.5414 125.717C47.5843 125.301 46.7929 124.896 46.0336 124.448L46.1352 124.501C45.3385 124.058 44.531 123.605 43.7343 123.12C40.5207 121.109 37.7348 118.863 35.2484 116.33L35.243 116.324C29.6713 110.377 25.5005 103.049 23.3082 94.9146L23.228 94.5572C21.8377 89.5755 20.8913 83.7883 20.5865 77.8305L20.5812 77.6385C20.4956 76.4064 20.4475 74.9609 20.4475 73.5101C20.4475 71.0512 20.5865 68.6244 20.8539 66.2402L20.8271 66.5335C21.5276 59.4236 23.6718 52.9431 26.9603 47.2039L26.8373 47.4386C29.3291 43.1183 32.516 39.4806 36.2857 36.563L36.3713 36.499C38.8791 34.5629 41.7666 32.9467 44.8733 31.7733L45.1032 31.6986C48.0067 30.6159 51.3647 29.9865 54.8724 29.9865C56.2627 29.9865 57.6262 30.0825 58.963 30.2745L58.8079 30.2585C60.7382 30.5199 62.4654 30.9412 64.123 31.5173L63.9305 31.4586C64.0856 31.4586 64.0856 31.4586 64.1711 31.6186C64.2513 31.6986 64.4117 31.6986 64.4919 31.7786C64.7326 31.864 65.0267 32.0187 65.3742 32.1733C66.8447 32.9414 68.0692 33.6881 69.2402 34.4935L69.1172 34.4135C73.9403 37.8005 77.7582 42.2969 80.2607 47.5453L80.3462 47.748C82.4477 52.3564 83.6882 57.7381 83.7203 63.4079V63.4186C83.7256 63.696 83.731 64.0213 83.731 64.3467C83.731 70.0912 82.4584 75.5423 80.1698 80.428L80.266 80.1933C77.1593 86.6152 72.3095 91.7836 66.326 95.2079L66.1602 95.2986C66.6415 95.4586 67.1227 95.5386 67.6093 95.6986C68.7108 95.9387 69.9781 96.0827 71.2775 96.0933H71.2882C79.5174 96.0133 86.95 92.6744 92.3559 87.3086C93.3933 86.3539 94.3397 85.3351 95.2006 84.247L95.2434 84.1883C96.3609 82.8869 97.4411 81.4575 98.4303 79.9587L98.5265 79.7986C99.6548 78.0598 100.751 76.0383 101.692 73.9315L101.81 73.6435C102.933 71.1046 103.874 68.1337 104.489 65.0454L104.531 64.7734C105.162 61.4131 105.521 57.5515 105.521 53.6045C105.521 51.855 105.451 50.1215 105.312 48.4094L105.328 48.6334C104.842 37.2138 101.232 26.7276 95.3396 17.8842L95.4787 18.1028C94.4627 16.6521 93.4895 15.4039 92.4575 14.2038L92.511 14.2679C90.7464 12.289 88.891 10.4862 86.9125 8.8274L86.8323 8.7634C84.6988 7.00325 82.314 5.38712 79.7794 4.00033L79.5442 3.88299C76.9989 2.67756 73.9885 1.58413 70.8657 0.76273L70.4968 0.682724L68.8926 0.362697C67.7751 0.202684 66.6468 0.128011 65.5025 0.0426702C64.9037 0.0160013 64.2032 0 63.5027 0C62.2996 0 61.1018 0.048004 59.9201 0.138678L60.0752 0.128011C55.9205 0.416035 52.0652 1.05609 48.3489 2.03217L48.782 1.93616C30.3397 6.86457 15.3891 19.0789 6.95664 35.2189L6.78553 35.5816C2.50781 43.8757 0 53.6845 0 64.0747C0 67.0189 0.203192 69.9152 0.588186 72.7474L0.550756 72.4167C1.24054 78.2999 2.70566 83.6656 4.85521 88.674L4.71084 88.2954C6.10644 91.7143 7.5876 94.6052 9.2773 97.3521L9.12223 97.0854C15.1378 106.585 23.2761 114.239 32.901 119.53L33.2379 119.701C36.5103 121.562 40.3228 123.264 44.3011 124.602L44.7717 124.741C45.9801 125.136 47.1779 125.536 48.4558 125.856L48.5414 125.717Z" fill="currentColor"/>
</svg>
