<svg   viewBox="0 0 128 128" fill="none" xmlns="http://www.w3.org/2000/svg">
<path d="M64.422 3.9532C30.1404 15.792 8.00025 39.8283 10.1428 54.1783C12.2854 68.5283 33.7114 80.0083 43.3531 87.5421C30.8546 93.9996 15.1422 103.686 15.4993 116.242C16.2135 133.462 34.7827 128.081 42.6389 123.058C50.4951 118.036 58.3513 104.045 53.3519 89.3358C64.422 86.4658 74.0637 90.0533 76.9205 92.2058C87.9906 100.098 82.277 109.067 78.3489 110.502C74.4208 111.937 76.9205 112.655 79.4202 111.937C81.9199 111.22 87.2764 107.632 87.2764 101.533C87.2764 86.1071 70.8498 78.9321 50.4951 84.3133C38.7108 71.7571 22.6413 66.0171 23.3555 52.3845C23.7126 47.362 25.4981 34.447 57.28 18.3032C89.0619 2.15944 111.559 8.61695 108.702 23.3257C104.417 45.5683 65.8504 60.6358 52.2806 47.7208C51.5664 46.2858 49.0667 45.2095 50.4951 49.1558C57.6371 67.0933 115.487 58.842 117.987 20.8145C118.701 0.72444 89.7761 -4.65682 64.422 3.9532ZM33.7114 118.753C24.7839 121.623 25.141 115.883 25.4981 113.731C26.5694 107.632 31.5688 100.098 46.567 92.5646C50.8522 106.197 41.2105 116.601 33.7114 118.753Z" fill="currentColor"/>
</svg>
