<svg   viewBox="0 0 128 128" fill="none" xmlns="http://www.w3.org/2000/svg">
<g clip-path="url(#clip0_89_939)">
<path d="M64 0C73.9273 0 83.3218 2.26164 91.7159 6.29562C88.28 9.01393 85.0941 11.6235 82.1257 14.1352C76.4716 12.0802 70.3717 10.9602 64.0109 10.9602C49.3646 10.9602 36.0992 16.897 26.509 26.4981C16.9079 36.0992 10.9711 49.3537 10.9711 64C10.9711 78.6463 16.9079 91.9008 26.509 101.502C36.1101 111.103 49.3646 117.04 64.0109 117.04C78.6572 117.04 91.9225 111.103 101.513 101.502C111.114 91.9008 117.051 78.6463 117.051 64C117.051 60.5206 116.714 57.1064 116.072 53.8118C118.823 50.2236 121.639 46.6463 124.521 43.1016C126.782 49.6473 128.011 56.6823 128.011 64C128.011 81.6691 120.845 97.6745 109.265 109.255C97.6854 120.835 81.6799 128 64.0109 128C46.3418 128 30.3364 120.835 18.7564 109.255C7.16548 97.6745 0 81.6691 0 64C0 46.331 7.16548 30.3255 18.7455 18.7455C30.3255 7.16548 46.331 0 64 0Z" fill="currentColor"/>
<path d="M51.559 51.1882C57.2039 54.6011 60.8759 57.4373 65.2499 62.4978C76.5929 43.3288 88.9046 32.7096 104.915 17.6344L106.481 17H124C100.509 44.3905 82.2964 66.9743 65.9893 100C57.4989 80.9429 49.931 67.7878 33 55.59L51.559 51.1882Z" fill="currentColor"/>
</g>
<defs>
<clipPath id="clip0_89_939">
<rect width="128" height="128" fill="currentColor"/>
</clipPath>
</defs>
</svg>
