<svg   viewBox="0 0 128 128" fill="none" xmlns="http://www.w3.org/2000/svg">
<path d="M72.3896 106H56.3896L58.3896 92H70.3896L72.3896 106Z" fill="currentColor"/>
<path d="M71.3896 21C73.8894 33 72.8894 49.0001 70.3896 82H58.3896C54.8894 49 53.8894 33 56.3896 21H71.3896Z" fill="currentColor"/>
<path fill-rule="evenodd" clip-rule="evenodd" d="M64 0C99.3462 0 128 28.6538 128 64C128 99.3462 99.3462 128 64 128C28.6538 128 0 99.3462 0 64C0 28.6538 28.6538 0 64 0ZM64 11C34.7289 11 11 34.7289 11 64C11 93.2711 34.7289 117 64 117C93.2711 117 117 93.2711 117 64C117 34.7289 93.2711 11 64 11Z" fill="currentColor"/>
</svg>
