<svg width="32" height="32" viewBox="0 0 32 32" fill="none" xmlns="http://www.w3.org/2000/svg">
<rect width="32" height="32" rx="4" fill="#0A1526"/>
<path d="M6 24.6566V6H12.3754C13.7415 6 14.9749 6.19076 16.0754 6.57229C17.1949 6.93474 18.0867 7.55472 18.7508 8.43223C19.4149 9.30974 19.7469 10.502 19.7469 12.009C19.7469 13.4588 19.4149 14.6511 18.7508 15.5858C18.0867 16.5206 17.2044 17.2169 16.1038 17.6747C15.0033 18.1135 13.7985 18.3328 12.4892 18.3328H10.1838V24.6566H6ZM10.1838 14.9849H12.2331C13.3905 14.9849 14.2444 14.7274 14.7946 14.2123C15.3638 13.6973 15.6485 12.9629 15.6485 12.009C15.6485 11.0171 15.3449 10.3303 14.7377 9.9488C14.1305 9.54819 13.2577 9.34789 12.1192 9.34789H10.1838V14.9849Z" fill="white"/>
<path d="M24.3208 25C23.8654 25 23.4669 24.8379 23.1254 24.5136C22.7838 24.1702 22.6131 23.741 22.6131 23.2259C22.6131 22.6727 22.7838 22.2339 23.1254 21.9096C23.4669 21.5663 23.8654 21.3946 24.3208 21.3946C24.7951 21.3946 25.1936 21.5663 25.5162 21.9096C25.8387 22.2339 26 22.6727 26 23.2259C26 23.741 25.8387 24.1702 25.5162 24.5136C25.1936 24.8379 24.7951 25 24.3208 25Z" fill="#9DC4FB"/>
</svg>
